<?xml version="1.0" encoding="iso-8859-1"?>
<!-- Uploaded to: SVG Repo, www.svgrepo.com, Generator: SVG Repo Mixer Tools -->
<svg fill="#fff" height="800px" width="800px" version="1.1" id="Layer_1" xmlns="http://www.w3.org/2000/svg" xmlns:xlink="http://www.w3.org/1999/xlink" 
	 viewBox="0 0 511.936 511.936" xml:space="preserve">
<g>
	<g>
		<path d="M358.928,132.016c-13.488-13.056-31.552-20.256-50.864-20.256c-18.192,0-35.072,6.352-48.864,18.384l-3.2,2.816
			l-3.152-2.896c-12.752-11.664-30.128-18.096-48.896-18.096c-19.984,0-38.208,7.28-51.312,20.496
			c-27.808,28.144-27.872,72.752-0.192,101.52l103.68,108.528L359.44,234.128C387.216,205.248,387.104,160.496,358.928,132.016z
			 M336.32,212l-80.24,84.176l-80.544-84.336c-15.584-16.208-15.648-41.2-0.16-56.864c7.04-7.104,17.184-11.008,28.576-11.008
			c10.752,0,20.432,3.44,27.28,9.712l24.352,22.24l24.704-21.696c16.144-14.112,42.08-13.056,56.128,0.528
			C352.032,170.544,352.016,195.68,336.32,212z"/>
	</g>
</g>
<g>
	<g>
		<path d="M255.968,0C136.144,0,38.656,97.168,38.656,216.576s97.488,216.56,217.312,216.56c10.896,0,22.096-0.896,33.392-2.656
			l102.176,81.456V385.568C443.6,344.16,473.28,283.04,473.28,216.576C473.28,97.168,375.792,0,255.968,0z M366.032,364.8
			l-6.496,4.8v75.904l-61.584-49.072l-7.2,1.36c-11.808,2.24-23.52,3.36-34.784,3.36c-102.192,0-185.312-82.8-185.312-184.56
			C70.656,114.8,153.776,32,255.968,32S441.28,114.8,441.28,216.576C441.28,275.472,413.856,329.504,366.032,364.8z"/>
	</g>
</g>
</svg>
